<?xml version="1.0" encoding="UTF-8" standalone="no"?>
<!DOCTYPE svg PUBLIC "-//W3C//DTD SVG 1.1//EN" "http://www.w3.org/Graphics/SVG/1.1/DTD/svg11.dtd">
<svg version="1.1" xmlns="http://www.w3.org/2000/svg" xmlns:xlink="http://www.w3.org/1999/xlink" preserveAspectRatio="xMidYMid meet" viewBox="0 0 640 640" width="640" height="640"><defs><path d="M79.62 398.14L80.09 398.3L80.55 398.51L81 398.77L81.42 399.06L103.57 416.01L103.97 416.34L104.33 416.71L104.65 417.09L104.94 417.5L105.18 417.93L105.39 418.38L105.55 418.84L105.68 419.31L105.76 419.79L105.8 420.28L105.81 420.77L105.77 421.25L105.69 421.74L105.56 422.22L105.4 422.69L105.19 423.15L104.93 423.59L104.63 424.02L104.3 424.42L103.94 424.78L103.55 425.1L103.14 425.38L102.71 425.63L102.26 425.83L101.8 426L101.33 426.13L100.85 426.21L100.36 426.25L99.88 426.26L99.39 426.22L98.9 426.14L98.42 426.01L97.95 425.85L97.5 425.64L97.05 425.38L96.62 425.08L74.48 408.14L74.08 407.8L73.72 407.44L73.4 407.05L73.11 406.64L72.87 406.21L72.66 405.77L72.5 405.31L72.37 404.83L72.29 404.35L72.24 403.87L72.24 403.38L72.28 402.89L72.36 402.41L72.49 401.93L72.65 401.46L72.86 401L73.12 400.56L73.41 400.13L73.75 399.73L74.11 399.37L74.5 399.05L74.91 398.76L75.34 398.52L75.79 398.31L76.25 398.15L76.72 398.02L77.2 397.94L77.68 397.89L78.17 397.89L78.66 397.93L79.14 398.01L79.14 398.01L79.62 398.14ZM104.91 386.04L105.38 386.21L105.84 386.42L106.28 386.67L106.71 386.97L128.86 403.92L129.26 404.25L129.62 404.61L129.94 405L130.22 405.41L130.47 405.84L130.67 406.29L130.84 406.75L130.96 407.22L131.05 407.7L131.09 408.19L131.1 408.67L131.06 409.16L130.97 409.65L130.85 410.13L130.68 410.6L130.47 411.06L130.22 411.5L129.92 411.93L129.59 412.33L129.23 412.69L128.84 413.01L128.43 413.29L128 413.54L127.55 413.74L127.09 413.91L126.62 414.03L126.14 414.12L125.65 414.16L125.17 414.16L124.68 414.13L124.19 414.04L123.71 413.92L123.24 413.75L122.78 413.54L122.34 413.29L121.91 412.99L99.77 396.05L99.37 395.71L99.01 395.35L98.69 394.96L98.4 394.55L98.16 394.12L97.95 393.68L97.79 393.21L97.66 392.74L97.58 392.26L97.53 391.78L97.53 391.29L97.57 390.8L97.65 390.32L97.77 389.84L97.94 389.37L98.15 388.91L98.4 388.46L98.7 388.04L99.04 387.64L99.4 387.28L99.79 386.95L100.2 386.67L100.63 386.43L101.07 386.22L101.53 386.06L102.01 385.93L102.49 385.85L102.97 385.8L103.46 385.8L103.95 385.84L104.43 385.92L104.43 385.92L104.91 386.04ZM118.35 375.11L118.82 375.28L119.27 375.49L119.72 375.74L120.15 376.04L142.29 392.98L142.69 393.32L143.05 393.68L143.37 394.07L143.66 394.48L143.9 394.91L144.11 395.36L144.27 395.82L144.4 396.29L144.48 396.77L144.53 397.25L144.53 397.74L144.49 398.23L144.41 398.72L144.29 399.19L144.12 399.66L143.91 400.12L143.66 400.57L143.36 400.99L143.02 401.39L142.66 401.75L142.27 402.08L141.86 402.36L141.43 402.61L140.99 402.81L140.52 402.98L140.05 403.1L139.57 403.19L139.09 403.23L138.6 403.23L138.11 403.19L137.63 403.11L137.15 402.99L136.68 402.82L136.22 402.61L135.77 402.36L135.35 402.06L113.2 385.12L112.8 384.78L112.44 384.42L112.12 384.03L111.84 383.62L111.59 383.19L111.39 382.74L111.22 382.28L111.09 381.81L111.01 381.33L110.97 380.85L110.96 380.36L111 379.87L111.08 379.38L111.21 378.91L111.38 378.44L111.59 377.98L111.84 377.53L112.14 377.11L112.47 376.71L112.83 376.35L113.22 376.02L113.63 375.74L114.06 375.49L114.51 375.29L114.97 375.12L115.44 375L115.92 374.91L116.41 374.87L116.89 374.87L117.38 374.91L117.87 374.99L117.87 374.99L118.35 375.11ZM188.31 341.26L189.13 341.52L189.92 341.85L190.69 342.26L191.42 342.74L192.11 343.29L192.76 343.92L193.35 344.61L197.46 349.93L197.99 350.67L198.43 351.46L198.79 352.26L199.08 353.09L199.28 353.93L199.4 354.79L199.45 355.65L199.42 356.5L199.31 357.35L199.12 358.19L198.87 359.01L198.53 359.8L198.12 360.57L197.64 361.3L197.09 361.99L196.47 362.64L195.77 363.23L190.98 366.94L190.23 367.46L189.45 367.91L188.64 368.27L187.81 368.55L186.97 368.75L186.12 368.88L185.26 368.92L184.4 368.89L183.55 368.78L182.72 368.6L181.9 368.34L181.1 368.01L180.34 367.6L179.6 367.12L178.91 366.57L178.27 365.94L177.68 365.25L176.89 364.23L177.06 364.61L177.34 365.44L177.55 366.28L177.67 367.14L177.72 367.99L177.68 368.85L177.58 369.7L177.39 370.54L177.13 371.36L176.8 372.15L176.39 372.92L175.91 373.65L175.36 374.34L174.73 374.98L174.04 375.58L169.25 379.29L168.5 379.81L167.72 380.26L166.91 380.62L166.08 380.9L165.24 381.1L164.38 381.23L163.53 381.27L162.67 381.24L161.82 381.13L160.98 380.95L160.16 380.69L159.37 380.36L158.6 379.95L157.87 379.47L157.18 378.91L156.54 378.29L155.94 377.59L151.83 372.28L151.31 371.53L150.86 370.75L150.5 369.95L150.22 369.12L150.02 368.27L149.89 367.42L149.85 366.56L149.88 365.71L149.99 364.86L150.17 364.02L150.43 363.2L150.76 362.41L151.17 361.64L151.65 360.91L152.2 360.22L152.83 359.57L153.52 358.98L158.31 355.27L159.06 354.74L159.84 354.3L160.65 353.94L161.48 353.66L162.32 353.45L163.18 353.33L164.04 353.28L164.89 353.32L165.74 353.42L166.58 353.61L167.4 353.87L168.19 354.2L168.96 354.61L169.69 355.09L170.38 355.64L171.03 356.27L171.62 356.96L172.4 357.98L172.23 357.6L171.95 356.77L171.75 355.93L171.62 355.07L171.58 354.21L171.61 353.36L171.72 352.51L171.9 351.67L172.16 350.85L172.5 350.06L172.9 349.29L173.38 348.56L173.94 347.87L174.56 347.22L175.26 346.63L180.05 342.92L180.8 342.4L181.58 341.95L182.38 341.59L183.21 341.31L184.06 341.11L184.91 340.98L185.77 340.94L186.62 340.97L187.47 341.08L187.47 341.08L188.31 341.26ZM209.65 322.38L210.47 322.64L211.26 322.98L212.03 323.38L212.76 323.86L213.45 324.42L214.1 325.04L214.69 325.74L218.8 331.05L219.33 331.8L219.77 332.58L220.13 333.39L220.41 334.21L220.62 335.06L220.74 335.91L220.79 336.77L220.75 337.63L220.65 338.47L220.46 339.31L220.2 340.13L219.87 340.93L219.46 341.69L218.98 342.42L218.43 343.11L217.8 343.76L217.11 344.35L212.32 348.06L211.57 348.59L210.79 349.03L209.98 349.39L209.15 349.67L208.31 349.88L207.45 350L206.6 350.05L205.74 350.01L204.89 349.91L204.05 349.72L203.23 349.46L202.44 349.13L201.67 348.72L200.94 348.24L200.25 347.69L199.61 347.06L199.01 346.37L194.9 341.06L194.38 340.31L193.93 339.53L193.57 338.72L193.29 337.89L193.09 337.05L192.96 336.19L192.92 335.34L192.95 334.48L193.06 333.63L193.24 332.79L193.5 331.97L193.83 331.18L194.24 330.41L194.72 329.68L195.27 328.99L195.9 328.35L196.59 327.75L201.38 324.04L202.13 323.52L202.91 323.08L203.72 322.71L204.55 322.43L205.39 322.23L206.25 322.11L207.1 322.06L207.96 322.09L208.81 322.2L208.81 322.2L209.65 322.38ZM498.37 323.96L498.99 324.14L499.57 324.39L500.1 324.7L500.59 325.06L501.04 325.47L501.44 325.92L501.78 326.42L502.07 326.95L502.3 327.5L502.47 328.09L502.57 328.69L502.6 329.31L502.57 329.93L502.45 330.57L499.07 344.87L498.89 345.49L498.64 346.07L498.33 346.6L497.97 347.09L497.56 347.54L497.11 347.94L496.61 348.28L496.09 348.57L495.53 348.8L494.94 348.97L494.34 349.07L493.72 349.1L493.1 349.07L492.47 348.95L489.05 348.15L488.44 347.96L487.86 347.72L487.32 347.41L486.83 347.05L486.38 346.64L485.99 346.18L485.64 345.69L485.36 345.16L485.13 344.6L484.96 344.02L484.86 343.42L484.82 342.8L484.86 342.17L484.97 341.54L488.35 327.23L488.54 326.62L488.78 326.04L489.09 325.5L489.45 325.01L489.86 324.56L490.32 324.17L490.81 323.82L491.34 323.54L491.9 323.31L492.48 323.14L493.08 323.04L493.7 323L494.33 323.04L494.96 323.15L494.96 323.15L498.37 323.96ZM479.01 321.55L479.63 321.73L480.2 321.98L480.74 322.28L481.23 322.64L481.68 323.05L482.08 323.51L482.42 324L482.71 324.53L482.94 325.09L483.1 325.67L483.21 326.28L483.24 326.89L483.2 327.52L483.09 328.15L479.71 342.46L479.53 343.07L479.28 343.65L478.97 344.19L478.61 344.68L478.2 345.13L477.75 345.52L477.25 345.87L476.72 346.16L476.17 346.39L475.58 346.55L474.98 346.65L474.36 346.69L473.74 346.65L473.1 346.54L469.69 345.73L469.08 345.55L468.5 345.3L467.96 345L467.47 344.63L467.02 344.22L466.63 343.77L466.28 343.28L465.99 342.75L465.76 342.19L465.6 341.61L465.5 341L465.46 340.39L465.5 339.76L465.61 339.13L468.99 324.82L469.17 324.2L469.42 323.63L469.73 323.09L470.09 322.6L470.5 322.15L470.96 321.75L471.45 321.41L471.98 321.12L472.54 320.89L473.12 320.73L473.72 320.62L474.34 320.59L474.97 320.63L475.6 320.74L475.6 320.74L479.01 321.55ZM435.44 278.38L435.78 278.45L436.13 278.53L436.47 278.63L436.81 278.74L437.15 278.88L437.48 279.03L437.81 279.2L456.63 289.7L456.95 289.89L457.26 290.09L457.55 290.31L457.83 290.53L458.09 290.77L458.34 291.02L458.58 291.29L458.8 291.56L459.01 291.84L459.2 292.13L459.38 292.42L459.55 292.73L459.69 293.04L459.83 293.36L459.95 293.68L460.05 294.01L460.13 294.35L460.2 294.68L460.26 295.03L460.3 295.37L460.32 295.72L460.32 296.06L460.31 296.41L460.28 296.76L460.23 297.11L460.17 297.45L460.09 297.8L459.99 298.14L459.87 298.48L459.74 298.82L459.58 299.15L459.41 299.48L448.23 319.54L448.67 319.02L449.21 318.51L449.79 318.06L450.41 317.68L451.07 317.36L451.76 317.11L452.48 316.93L453.22 316.82L453.97 316.8L454.73 316.85L455.5 316.99L459.95 318.04L460.7 318.26L461.41 318.55L462.07 318.92L462.68 319.34L463.24 319.82L463.75 320.36L464.19 320.94L464.58 321.56L464.9 322.22L465.15 322.91L465.33 323.63L465.43 324.36L465.46 325.12L465.41 325.88L465.27 326.65L462.65 337.72L462.43 338.47L462.14 339.17L461.78 339.83L461.35 340.45L460.87 341.01L460.34 341.51L459.75 341.96L459.13 342.34L458.47 342.66L457.78 342.92L457.06 343.1L456.33 343.2L455.57 343.23L454.81 343.17L454.04 343.04L449.59 341.98L448.84 341.76L448.14 341.47L447.48 341.11L446.86 340.68L446.3 340.2L445.8 339.67L445.35 339.09L444.97 338.46L444.65 337.8L444.4 337.11L444.22 336.4L444.11 335.66L444.08 334.91L444.14 334.14L444.28 333.37L446.89 322.31L447.11 321.56L447.15 321.47L441.07 332.37L440.89 332.68L440.68 332.99L440.47 333.28L440.24 333.56L440 333.82L439.75 334.07L439.49 334.31L439.22 334.53L438.94 334.74L438.65 334.93L438.35 335.11L438.05 335.28L437.73 335.42L437.42 335.56L437.09 335.68L436.76 335.78L436.43 335.86L436.09 335.93L435.75 335.99L435.41 336.03L435.06 336.05L434.71 336.05L434.37 336.04L434.02 336.01L433.67 335.96L433.32 335.9L432.98 335.82L432.64 335.72L432.3 335.6L431.96 335.47L431.63 335.31L431.3 335.14L412.47 324.64L412.15 324.46L411.85 324.25L411.56 324.04L411.28 323.81L411.01 323.57L410.76 323.32L410.53 323.06L410.3 322.79L410.1 322.51L409.9 322.22L409.72 321.92L409.56 321.62L409.41 321.3L409.28 320.99L409.16 320.66L409.06 320.33L408.97 320L408.9 319.66L408.85 319.32L408.81 318.98L408.79 318.63L408.78 318.28L408.8 317.94L408.83 317.59L408.87 317.24L408.94 316.89L409.02 316.55L409.12 316.21L409.23 315.87L409.37 315.53L409.52 315.2L409.7 314.87L428.03 281.98L428.22 281.66L428.42 281.36L428.64 281.07L428.86 280.79L429.1 280.52L429.35 280.27L429.62 280.04L429.89 279.81L430.17 279.61L430.46 279.41L430.75 279.23L431.06 279.07L431.37 278.92L431.69 278.79L432.01 278.67L432.34 278.57L432.68 278.48L433.02 278.41L433.36 278.36L433.7 278.32L434.05 278.3L434.39 278.29L434.74 278.31L435.09 278.34L435.09 278.34L435.44 278.38ZM232.43 303.6L233.25 303.86L234.05 304.19L234.81 304.6L235.55 305.08L236.24 305.63L236.88 306.26L237.47 306.95L241.59 312.26L242.11 313.01L242.55 313.79L242.92 314.6L243.2 315.43L243.4 316.27L243.53 317.13L243.57 317.98L243.54 318.84L243.43 319.69L243.25 320.53L242.99 321.35L242.65 322.14L242.25 322.91L241.77 323.64L241.21 324.33L240.59 324.97L239.89 325.57L235.1 329.28L234.35 329.8L233.57 330.24L232.77 330.61L231.94 330.89L231.09 331.09L230.24 331.22L229.38 331.26L228.53 331.23L227.68 331.12L226.84 330.94L226.02 330.68L225.23 330.34L224.46 329.94L223.73 329.46L223.04 328.9L222.39 328.28L221.8 327.58L217.69 322.27L217.16 321.52L216.72 320.74L216.36 319.94L216.07 319.11L215.87 318.26L215.75 317.41L215.7 316.55L215.73 315.7L215.84 314.85L216.03 314.01L216.28 313.19L216.62 312.39L217.03 311.63L217.51 310.9L218.06 310.21L218.68 309.56L219.38 308.97L224.17 305.26L224.92 304.73L225.7 304.29L226.51 303.93L227.34 303.65L228.18 303.44L229.03 303.32L229.89 303.27L230.75 303.31L231.6 303.41L231.6 303.41L232.43 303.6ZM405.78 255.62L406.13 255.68L406.48 255.76L406.82 255.86L407.16 255.98L407.49 256.12L407.83 256.27L408.15 256.44L426.98 266.94L427.3 267.13L427.61 267.33L427.9 267.54L428.18 267.77L428.44 268.01L428.69 268.26L428.93 268.52L429.15 268.79L429.36 269.07L429.55 269.36L429.73 269.66L429.89 269.97L430.04 270.28L430.18 270.6L430.29 270.92L430.4 271.25L430.48 271.58L430.55 271.92L430.61 272.26L430.64 272.61L430.66 272.95L430.67 273.3L430.66 273.65L430.63 274L430.58 274.34L430.52 274.69L430.44 275.03L430.34 275.38L430.22 275.72L430.08 276.05L429.93 276.39L429.76 276.71L411.42 309.6L411.23 309.92L411.03 310.23L410.82 310.52L410.59 310.8L410.35 311.06L410.1 311.31L409.84 311.55L409.57 311.77L409.29 311.98L409 312.17L408.7 312.35L408.39 312.51L408.08 312.66L407.76 312.8L407.44 312.91L407.11 313.02L406.78 313.1L406.44 313.17L406.1 313.23L405.75 313.26L405.41 313.28L405.06 313.29L404.71 313.28L404.37 313.25L404.02 313.2L403.67 313.14L403.33 313.06L402.98 312.96L402.64 312.84L402.31 312.7L401.98 312.55L401.65 312.38L382.82 301.88L382.5 301.69L382.2 301.49L381.9 301.28L381.63 301.05L381.36 300.81L381.11 300.56L380.87 300.3L380.65 300.03L380.44 299.75L380.25 299.46L380.07 299.16L379.91 298.85L379.76 298.54L379.63 298.22L379.51 297.9L379.41 297.57L379.32 297.24L379.25 296.9L379.2 296.56L379.16 296.21L379.14 295.87L379.13 295.52L379.14 295.17L379.17 294.83L379.22 294.48L379.28 294.13L379.37 293.79L379.47 293.44L379.58 293.1L379.72 292.77L379.87 292.43L380.04 292.11L398.38 259.22L398.57 258.9L398.77 258.59L398.98 258.3L399.21 258.02L399.45 257.76L399.7 257.51L399.96 257.27L400.23 257.05L400.52 256.84L400.8 256.65L401.1 256.47L401.41 256.31L401.72 256.16L402.04 256.03L402.36 255.91L402.69 255.81L403.03 255.72L403.36 255.65L403.7 255.59L404.05 255.56L404.39 255.54L404.74 255.53L405.09 255.54L405.44 255.57L405.44 255.57L405.78 255.62ZM268.46 253.61L268.83 253.67L269.18 253.75L269.54 253.84L269.89 253.95L270.23 254.08L270.57 254.22L270.9 254.38L271.22 254.55L271.53 254.74L271.84 254.95L272.14 255.16L272.42 255.4L272.7 255.64L272.96 255.9L273.22 256.17L273.46 256.46L273.69 256.76L273.9 257.07L274.11 257.39L274.29 257.73L274.46 258.08L274.62 258.44L288.25 292.08L288.39 292.45L288.51 292.82L288.61 293.19L288.69 293.57L288.75 293.94L288.79 294.31L288.82 294.69L288.83 295.06L288.82 295.43L288.79 295.8L288.74 296.17L288.68 296.53L288.6 296.89L288.51 297.24L288.4 297.59L288.27 297.93L288.13 298.27L287.97 298.6L287.8 298.92L287.61 299.24L287.41 299.54L287.19 299.84L286.96 300.13L286.71 300.4L286.45 300.67L286.18 300.92L285.89 301.16L285.59 301.39L285.28 301.61L284.96 301.81L284.62 302L284.27 302.17L283.91 302.32L262.05 311.18L261.68 311.32L261.31 311.44L260.94 311.54L260.57 311.62L260.2 311.68L259.82 311.72L259.45 311.75L259.08 311.76L258.71 311.75L258.34 311.72L257.97 311.67L257.61 311.61L257.25 311.53L256.9 311.44L256.55 311.33L256.2 311.2L255.87 311.06L255.54 310.9L255.21 310.73L254.9 310.54L254.59 310.34L254.3 310.12L254.01 309.89L253.73 309.64L253.47 309.38L253.22 309.11L252.97 308.82L252.74 308.52L252.53 308.21L252.33 307.89L252.14 307.55L251.97 307.2L251.81 306.84L238.18 273.2L238.05 272.83L237.93 272.46L237.83 272.09L237.75 271.72L237.68 271.34L237.64 270.97L237.61 270.59L237.61 270.22L237.62 269.85L237.64 269.48L237.69 269.12L237.75 268.75L237.83 268.4L237.92 268.04L238.03 267.69L238.16 267.35L238.3 267.01L238.46 266.68L238.64 266.36L238.82 266.05L239.03 265.74L239.24 265.44L239.48 265.16L239.72 264.88L239.98 264.62L240.25 264.36L240.54 264.12L240.84 263.89L241.15 263.68L241.47 263.47L241.81 263.29L242.16 263.11L242.52 262.96L264.38 254.1L264.75 253.96L265.12 253.85L265.49 253.75L265.86 253.67L266.24 253.6L266.61 253.56L266.98 253.53L267.36 253.53L267.73 253.54L268.1 253.56L268.1 253.56L268.46 253.61ZM360.5 236.69L360.88 236.76L361.25 236.84L361.63 236.94L362 237.07L384.21 245.01L384.58 245.15L384.93 245.3L385.28 245.48L385.61 245.66L385.93 245.87L386.24 246.08L386.53 246.31L386.82 246.56L387.09 246.81L387.34 247.08L387.59 247.35L387.82 247.64L388.03 247.94L388.23 248.24L388.42 248.56L388.59 248.88L388.75 249.21L388.89 249.55L389.01 249.89L389.12 250.24L389.22 250.6L389.29 250.96L389.35 251.32L389.4 251.69L389.42 252.06L389.43 252.43L389.42 252.81L389.39 253.18L389.35 253.56L389.28 253.93L389.2 254.31L389.09 254.68L388.97 255.06L376.75 289.24L376.61 289.61L376.45 289.96L376.28 290.3L376.09 290.64L375.89 290.96L375.67 291.27L375.44 291.56L375.2 291.84L374.95 292.11L374.68 292.37L374.4 292.61L374.12 292.84L373.82 293.06L373.51 293.26L373.2 293.45L372.88 293.62L372.54 293.78L372.21 293.92L371.86 294.04L371.51 294.15L371.16 294.24L370.8 294.32L370.44 294.38L370.07 294.42L369.7 294.45L369.33 294.46L368.95 294.45L368.58 294.42L368.2 294.37L367.82 294.31L367.45 294.22L367.07 294.12L366.7 294L344.49 286.06L344.12 285.92L343.77 285.76L343.42 285.59L343.09 285.4L342.77 285.2L342.46 284.98L342.17 284.75L341.88 284.51L341.61 284.25L341.36 283.99L341.11 283.71L340.88 283.42L340.67 283.13L340.47 282.82L340.28 282.5L340.11 282.18L339.95 281.85L339.81 281.51L339.69 281.17L339.58 280.82L339.48 280.46L339.41 280.1L339.35 279.74L339.3 279.37L339.28 279L339.27 278.63L339.28 278.26L339.31 277.88L339.36 277.51L339.42 277.13L339.51 276.75L339.61 276.38L339.73 276.01L351.95 241.82L352.09 241.46L352.25 241.1L352.42 240.76L352.61 240.43L352.81 240.11L353.03 239.8L353.26 239.5L353.5 239.22L353.75 238.95L354.02 238.69L354.3 238.45L354.58 238.22L354.88 238L355.19 237.8L355.5 237.62L355.83 237.44L356.16 237.29L356.49 237.15L356.84 237.02L357.19 236.91L357.54 236.82L357.9 236.74L358.27 236.68L358.63 236.64L359 236.61L359.38 236.61L359.75 236.62L360.13 236.64L360.13 236.64L360.5 236.69ZM321.21 233.99L321.58 234.06L321.94 234.15L322.29 234.25L322.64 234.37L322.98 234.51L323.32 234.66L323.65 234.82L323.96 235L324.27 235.2L324.57 235.41L324.86 235.63L325.14 235.87L325.41 236.12L325.67 236.38L325.91 236.66L326.14 236.94L326.36 237.24L326.57 237.55L326.76 237.87L326.94 238.2L327.1 238.54L327.24 238.89L327.37 239.25L327.49 239.62L327.58 239.99L327.66 240.38L333.98 276.12L334.04 276.51L334.08 276.9L334.1 277.28L334.1 277.66L334.09 278.04L334.05 278.42L334 278.79L333.93 279.15L333.84 279.51L333.74 279.87L333.62 280.22L333.48 280.56L333.33 280.89L333.16 281.22L332.98 281.54L332.79 281.85L332.58 282.15L332.35 282.44L332.12 282.72L331.87 282.99L331.61 283.24L331.33 283.49L331.04 283.72L330.75 283.94L330.44 284.14L330.12 284.33L329.79 284.51L329.45 284.67L329.1 284.82L328.74 284.95L328.37 285.06L327.99 285.16L327.61 285.23L304.38 289.34L303.99 289.4L303.61 289.44L303.22 289.46L302.84 289.46L302.46 289.45L302.09 289.41L301.72 289.36L301.35 289.29L300.99 289.2L300.64 289.1L300.29 288.98L299.95 288.84L299.61 288.69L299.29 288.52L298.97 288.34L298.66 288.15L298.36 287.94L298.07 287.71L297.79 287.48L297.52 287.23L297.26 286.97L297.02 286.69L296.79 286.41L296.57 286.11L296.36 285.8L296.17 285.48L295.99 285.15L295.83 284.81L295.69 284.46L295.56 284.1L295.44 283.73L295.35 283.36L295.27 282.97L288.95 247.22L288.89 246.84L288.85 246.45L288.83 246.07L288.83 245.68L288.85 245.31L288.88 244.93L288.93 244.56L289 244.19L289.09 243.83L289.19 243.48L289.31 243.13L289.45 242.79L289.6 242.45L289.77 242.13L289.95 241.81L290.14 241.5L290.35 241.2L290.58 240.91L290.81 240.63L291.06 240.36L291.33 240.11L291.6 239.86L291.89 239.63L292.18 239.41L292.49 239.2L292.81 239.01L293.14 238.84L293.48 238.67L293.83 238.53L294.19 238.4L294.56 238.29L294.94 238.19L295.32 238.11L318.55 234L318.94 233.95L319.32 233.91L319.71 233.89L320.09 233.88L320.47 233.9L320.84 233.94L320.84 233.94L321.21 233.99Z" id="b8gXtQl3ej"></path><path d="M404.49 299.44L404.91 299.67L405.32 299.9L405.73 300.13L406.14 300.37L406.55 300.6L406.96 300.84L407.37 301.08L407.78 301.32L408.18 301.56L408.58 301.81L408.99 302.06L409.39 302.3L409.79 302.56L410.19 302.81L410.58 303.07L410.98 303.32L411.37 303.58L411.77 303.84L412.16 304.11L412.55 304.37L412.94 304.64L413.33 304.91L413.71 305.18L414.1 305.46L414.48 305.73L414.87 306.01L415.25 306.29L415.63 306.57L416 306.85L416.38 307.14L416.76 307.42L417.13 307.71L417.5 308L417.87 308.3L418.24 308.59L418.61 308.89L418.98 309.18L419.34 309.48L419.71 309.79L420.07 310.09L447.06 332.85L447.12 332.84L447.47 332.78L447.82 332.75L448.17 332.72L448.53 332.72L448.9 332.73L449.26 332.75L501.55 337.73L501.92 337.77L502.29 337.81L502.66 337.84L503.03 337.89L503.4 337.93L503.77 337.97L504.14 338.02L504.5 338.07L504.87 338.11L505.24 338.17L505.61 338.22L505.98 338.27L506.35 338.33L506.71 338.38L507.08 338.44L507.45 338.5L507.81 338.56L508.18 338.63L508.55 338.69L508.91 338.76L509.28 338.83L509.64 338.9L510.01 338.97L510.37 339.04L510.74 339.12L511.1 339.19L511.46 339.27L511.83 339.35L512.19 339.43L512.55 339.51L512.91 339.6L513.28 339.68L513.64 339.77L514 339.86L514.36 339.95L514.72 340.04L515.08 340.14L515.44 340.23L515.8 340.33L516.16 340.43L533.57 345.24L533.9 345.34L534.23 345.45L534.54 345.58L534.85 345.72L535.15 345.87L535.44 346.03L535.73 346.21L536 346.39L536.26 346.59L536.52 346.8L536.76 347.01L536.99 347.24L537.22 347.47L537.43 347.72L537.63 347.97L537.82 348.23L538 348.49L538.17 348.77L538.33 349.05L538.47 349.33L538.61 349.62L538.73 349.92L538.84 350.22L538.93 350.53L539.02 350.84L539.09 351.16L539.15 351.47L539.19 351.79L539.22 352.12L539.24 352.44L539.24 352.77L539.23 353.1L539.21 353.43L539.17 353.76L539.12 354.09L539.05 354.41L538.99 354.63L538.97 354.67L538.83 354.9L538.69 355.12L538.54 355.33L538.38 355.54L538.22 355.75L538.05 355.95L537.88 356.14L537.7 356.34L537.52 356.52L537.34 356.7L537.14 356.88L536.95 357.05L536.75 357.22L536.55 357.37L536.34 357.53L536.12 357.68L535.91 357.82L535.69 357.96L535.46 358.09L535.24 358.21L535 358.33L534.77 358.44L534.53 358.55L534.29 358.65L534.05 358.74L533.8 358.83L533.55 358.91L533.3 358.99L533.05 359.05L532.79 359.11L532.53 359.17L532.27 359.21L532 359.25L531.74 359.28L531.47 359.31L499.05 361.84L457.4 378.9L453.96 398.62L453.89 399.08L453.81 399.55L453.74 400.01L453.68 400.47L453.62 400.94L453.57 401.4L453.52 401.87L453.47 402.33L453.44 402.8L453.4 403.27L453.37 403.73L453.35 404.2L453.33 404.66L453.31 405.13L453.3 405.6L453.3 406.06L453.3 406.53L453.3 407L453.31 407.46L453.33 407.93L453.34 408.4L453.37 408.86L453.4 409.33L453.43 409.79L453.47 410.26L453.51 410.72L453.56 411.19L453.61 411.65L453.67 412.11L453.73 412.58L453.8 413.04L453.87 413.5L453.95 413.96L454.03 414.42L454.12 414.88L454.21 415.34L454.31 415.8L454.41 416.26L454.51 416.71L454.62 417.17L459.16 435.42L462.77 440.12L462.91 440.32L463.05 440.53L463.16 440.74L463.27 440.96L463.36 441.17L463.43 441.39L463.49 441.61L463.54 441.83L463.58 442.05L463.6 442.28L463.61 442.5L463.61 442.72L463.6 442.94L463.57 443.16L463.54 443.37L463.49 443.58L463.43 443.79L463.36 444L463.28 444.2L463.19 444.4L463.08 444.59L462.97 444.78L462.85 444.96L462.72 445.14L462.58 445.31L462.43 445.47L462.27 445.62L462.11 445.76L461.93 445.9L461.75 446.03L461.56 446.14L461.36 446.25L461.16 446.34L460.94 446.43L460.73 446.5L460.5 446.56L460.27 446.61L460.03 446.64L459.78 446.67L459.53 446.67L447.13 446.67L446.73 446.67L446.33 446.65L445.94 446.62L445.54 446.59L445.15 446.54L444.77 446.48L444.38 446.41L444 446.34L443.62 446.25L443.24 446.15L442.87 446.04L442.5 445.93L442.13 445.8L441.77 445.66L441.41 445.52L441.06 445.36L440.71 445.2L440.36 445.03L440.02 444.84L439.69 444.65L439.36 444.46L439.03 444.25L438.71 444.03L438.4 443.81L438.09 443.57L437.79 443.33L437.49 443.08L437.2 442.83L436.92 442.56L436.64 442.29L436.37 442.01L436.11 441.72L435.85 441.42L435.61 441.12L435.37 440.81L435.13 440.49L434.91 440.17L434.69 439.84L434.48 439.5L434.28 439.15L421.42 416.23L421.19 415.83L420.97 415.42L420.75 415L420.55 414.59L420.34 414.17L420.14 413.75L419.95 413.33L419.76 412.9L419.58 412.48L419.41 412.05L419.24 411.62L419.07 411.18L418.91 410.75L418.76 410.31L418.61 409.87L418.47 409.43L418.33 408.99L418.2 408.55L418.07 408.1L417.95 407.66L417.84 407.21L417.73 406.76L417.63 406.31L417.53 405.86L417.44 405.4L417.35 404.95L417.27 404.49L417.2 404.03L417.13 403.58L417.07 403.12L417.01 402.66L416.96 402.2L416.92 401.73L416.88 401.27L416.85 400.81L416.82 400.34L416.8 399.88L416.78 399.41L416.78 398.95L416.77 398.48L416.77 396.65L385.3 400.06L384.87 400.1L384.44 400.15L384 400.19L383.57 400.23L383.13 400.26L382.7 400.3L382.26 400.33L381.83 400.36L381.39 400.38L380.96 400.41L380.52 400.43L380.09 400.45L379.65 400.46L379.22 400.48L378.78 400.49L378.35 400.5L377.91 400.51L377.47 400.51L377.04 400.51L376.6 400.51L376.17 400.51L375.73 400.51L375.3 400.5L374.86 400.49L374.42 400.48L373.99 400.46L373.55 400.44L373.12 400.42L372.68 400.4L372.25 400.38L371.81 400.35L371.38 400.32L370.94 400.29L370.51 400.25L370.07 400.22L369.64 400.18L369.2 400.14L368.77 400.09L368.34 400.05L367.9 400L333.93 396.08L333.56 396.03L333.2 395.97L332.84 395.89L332.48 395.8L332.13 395.7L331.79 395.59L331.52 395.48L331.43 395.68L331.34 395.88L331.24 396.08L331.14 396.28L331.04 396.48L330.93 396.67L330.81 396.87L330.69 397.06L330.57 397.25L330.44 397.44L321.49 410.33L321.36 410.52L321.23 410.71L321.11 410.91L320.99 411.1L320.87 411.3L320.75 411.5L320.64 411.7L320.53 411.91L320.43 412.11L320.33 412.32L320.23 412.52L320.13 412.73L320.04 412.94L319.95 413.15L319.86 413.36L319.78 413.58L319.7 413.79L319.62 414.01L319.55 414.22L319.48 414.44L319.41 414.66L319.35 414.88L319.29 415.1L319.23 415.32L319.18 415.55L319.13 415.77L319.08 415.99L319.04 416.22L319 416.44L318.96 416.67L318.93 416.9L318.9 417.13L318.87 417.35L318.85 417.58L318.83 417.81L318.82 418.04L318.8 418.27L318.79 418.5L318.79 418.74L318.79 418.97L318.79 427.65L318.79 427.88L318.8 428.1L318.81 428.33L318.83 428.55L318.85 428.77L318.88 428.99L318.91 429.21L318.94 429.43L318.99 429.65L319.03 429.87L319.08 430.08L319.14 430.3L319.2 430.51L319.26 430.72L319.33 430.93L319.4 431.14L319.48 431.34L319.57 431.55L319.65 431.75L319.74 431.95L319.84 432.15L319.94 432.34L320.04 432.54L320.15 432.73L320.26 432.92L320.38 433.11L320.5 433.29L320.63 433.47L320.75 433.65L320.89 433.83L321.02 434L321.16 434.17L321.31 434.34L321.46 434.51L321.61 434.67L321.77 434.83L321.93 434.98L322.09 435.14L322.26 435.29L322.43 435.43L332.27 443.64L332.36 443.71L332.44 443.8L332.51 443.88L332.58 443.97L332.64 444.06L332.69 444.15L332.74 444.25L332.78 444.35L332.82 444.44L332.84 444.54L332.86 444.64L332.88 444.75L332.89 444.85L332.89 444.95L332.89 445.05L332.88 445.15L332.86 445.25L332.84 445.35L332.81 445.44L332.78 445.54L332.75 445.63L332.7 445.72L332.66 445.81L332.6 445.9L332.55 445.98L332.49 446.06L332.42 446.14L332.35 446.21L332.27 446.28L332.19 446.34L332.11 446.4L332.02 446.46L331.93 446.5L331.83 446.55L331.73 446.58L331.62 446.61L331.51 446.64L331.4 446.66L331.29 446.67L331.17 446.67L297.21 446.67L297 446.67L296.79 446.66L296.58 446.64L296.38 446.62L296.17 446.59L295.97 446.55L295.77 446.51L295.57 446.46L295.38 446.4L295.19 446.34L295 446.27L294.81 446.2L294.62 446.12L294.44 446.03L294.27 445.94L294.09 445.84L293.92 445.74L293.75 445.63L293.58 445.52L293.42 445.4L293.27 445.28L293.11 445.15L292.96 445.02L292.82 444.88L292.68 444.74L292.54 444.59L292.41 444.44L292.28 444.29L292.16 444.13L292.04 443.96L291.93 443.79L291.82 443.62L291.72 443.44L291.63 443.26L291.54 443.08L291.45 442.89L291.37 442.7L291.3 442.51L291.23 442.31L291.17 442.11L288.01 430.92L287.95 430.69L287.88 430.46L287.82 430.24L287.76 430.01L287.71 429.78L287.65 429.55L287.6 429.32L287.55 429.09L287.49 428.86L287.45 428.63L287.4 428.4L287.35 428.17L287.31 427.94L287.27 427.71L287.22 427.47L287.18 427.24L287.15 427.01L287.11 426.78L287.08 426.54L287.04 426.31L287.01 426.08L286.98 425.84L286.95 425.61L286.93 425.38L286.9 425.14L286.88 424.91L286.86 424.67L286.84 424.44L286.82 424.2L286.8 423.97L286.78 423.73L286.77 423.5L286.76 423.26L286.75 423.03L286.74 422.79L286.73 422.56L286.73 422.32L286.72 422.09L286.72 421.85L286.72 421.61L286.72 379.84L286.71 379.65L286.7 379.46L286.68 379.27L286.66 379.08L286.62 378.89L286.58 378.71L286.53 378.53L286.48 378.35L286.41 378.18L286.34 378.01L286.27 377.84L286.19 377.68L286.1 377.52L286 377.36L285.9 377.21L285.8 377.07L285.69 376.92L285.57 376.78L285.45 376.65L285.32 376.52L285.19 376.4L285.06 376.28L284.92 376.16L284.77 376.06L284.62 375.95L284.47 375.86L284.31 375.77L284.15 375.68L283.98 375.6L283.82 375.53L283.65 375.46L283.47 375.41L283.29 375.35L283.11 375.31L282.93 375.27L282.74 375.24L282.55 375.21L282.36 375.2L282.17 375.19L281.98 375.19L260.75 375.59L255.55 377.24L151.53 423.28L115.13 435.42L83.75 435.42L77.25 432.71L77.02 432.61L76.8 432.5L76.59 432.37L76.4 432.24L76.21 432.09L76.04 431.94L75.88 431.78L75.73 431.61L75.59 431.43L75.47 431.25L75.35 431.06L75.25 430.87L75.16 430.67L75.08 430.47L75.01 430.26L74.95 430.05L74.91 429.84L74.87 429.62L74.85 429.41L74.84 429.19L74.84 428.97L74.86 428.76L74.88 428.54L74.92 428.33L74.96 428.12L75.02 427.91L75.1 427.7L75.18 427.5L75.27 427.3L75.38 427.11L75.5 426.92L75.63 426.74L75.77 426.56L75.93 426.39L76.09 426.23L76.27 426.08L76.46 425.94L76.66 425.81L76.87 425.68L77.1 425.57L122.54 404.42L183.31 368.66L181.01 368.73L240.1 310.63L240.44 310.3L240.78 309.97L241.12 309.65L241.47 309.33L241.81 309.01L242.16 308.7L242.52 308.39L242.87 308.08L243.23 307.78L243.59 307.48L243.95 307.18L244.32 306.89L244.69 306.59L245.06 306.31L245.43 306.02L245.8 305.74L246.18 305.46L246.56 305.19L246.94 304.91L247.33 304.65L247.71 304.38L248.1 304.12L248.49 303.86L248.89 303.6L249.28 303.35L249.68 303.1L250.08 302.86L250.48 302.62L250.89 302.38L251.29 302.14L251.7 301.91L252.11 301.68L252.52 301.46L252.94 301.24L253.36 301.02L253.77 300.8L254.19 300.59L254.62 300.39L255.04 300.18L255.47 299.98L302.18 278.29L343.01 278.29L373.29 282.47L404.49 299.44ZM538.75 355.4L538.87 355.07L538.96 354.74L538.99 354.63L539.1 354.44L539.23 354.21L539.35 353.97L539.47 353.73L539.57 353.48L538.62 355.72L538.75 355.4Z" id="a4UUTgyx7"></path><path d="M512.26 346.98C512.26 348.97 510.64 350.6 508.64 350.6C506.64 350.6 505.02 348.97 505.02 346.98C505.02 344.98 506.64 343.35 508.64 343.35C510.64 343.35 512.26 344.98 512.26 346.98Z" id="evkLaIQ4r"></path></defs><g><g><g><g><use xlink:href="#b8gXtQl3ej" opacity="1" fill="#c2b74a" fill-opacity="1"></use></g><g><use xlink:href="#a4UUTgyx7" opacity="1" fill="#2d9f00" fill-opacity="1"></use></g><g><use xlink:href="#evkLaIQ4r" opacity="1" fill="#000000" fill-opacity="1"></use></g></g></g></g></svg>